<?xml version="1.0" encoding="utf-8"?>
<!-- Generator: Adobe Illustrator 16.0.0, SVG Export Plug-In . SVG Version: 6.00 Build 0)  -->
<!DOCTYPE svg PUBLIC "-//W3C//DTD SVG 1.1//EN" "http://www.w3.org/Graphics/SVG/1.1/DTD/svg11.dtd">
<svg version="1.1" xmlns="http://www.w3.org/2000/svg" xmlns:xlink="http://www.w3.org/1999/xlink" x="0px" y="0px" width="263px"
	 height="256px" viewBox="0 0 263 256" enable-background="new 0 0 263 256" xml:space="preserve">
<g id="Layer_1">
	<g>
		<g>
			<path fill-rule="evenodd" clip-rule="evenodd" fill="#FFFFFF" d="M131.059,2.23C61.599,2.23,5.73,58.541,5.73,128.003
				c0,69.464,56.751,125.767,126.211,125.767c69.461,0,125.328-55.863,125.328-125.33C257.27,58.977,200.519,2.23,131.059,2.23z
				 M131.059,244.06c-63.863,0-115.62-51.75-115.62-115.619c0-63.864,51.736-115.659,115.601-115.659
				c63.865,0,115.64,51.794,115.64,115.659C246.679,192.31,194.925,244.06,131.059,244.06z M131.059,122.263h0.883
				c0.279,0.027,0.597,0,0.883,0c4.896,0,8.827-3.931,8.827-8.826c0-4.896-3.931-8.826-8.827-8.826c-0.286,0-0.604-0.026-0.883,0
				h-0.883c-19.112,0-34.421,15.308-34.421,34.421v44.129c0,19.111,15.309,34.422,34.421,34.422
				c17.092,0,31.61-11.072,34.422-27.359c0.332-0.932,0.881-3.371,0.881-4.414c0-4.896-3.93-8.826-8.826-8.826
				c-4.895,0-9.709,3.93-9.709,8.826c-1.396,7.912-8.453,13.238-16.769,13.238c-9.324,0-15.887-6.563-15.887-15.887v-44.129
				C115.172,129.708,121.735,122.263,131.059,122.263z M131.5,25.423c54.927,0,99.72,43.362,102.034,97.722h4.205
				C235.421,66.464,188.747,21.223,131.5,21.223S27.58,66.464,25.262,123.145h4.205C31.781,68.786,76.573,25.423,131.5,25.423z
				 M131.5,229.698c-54.333,0-98.75-42.428-101.943-95.961h-4.211c3.198,55.855,49.498,100.164,106.154,100.164
				c56.656,0,102.958-44.309,106.155-100.164h-4.211C230.251,187.271,185.833,229.698,131.5,229.698z M175.188,161.978
				c0-3.262-2.914-6.176-6.178-6.176h-2.648V73.721c0-19.115-15.307-35.304-34.42-35.304c-19.113,0-35.304,16.189-35.304,35.304
				c-0.085,7.702,0.085,15.244,0,22.947c0,4.842,3.984,8.827,8.826,8.827s8.825-3.985,8.825-8.827c0.11-7.703-0.109-15.245,0-22.947
				c0-9.325,8.329-16.77,17.652-16.77c9.324,0,15.886,7.445,15.886,16.77v82.081h-2.646c-3.265,0-5.296,2.914-5.296,6.176
				c0,3.266,2.031,6.18,5.296,6.18h23.829C172.274,168.157,175.188,165.243,175.188,161.978z"/>
		</g>
	</g>
</g>
<g id="Layer_2">
	<path fill-rule="evenodd" clip-rule="evenodd" fill="#2B2B2B" d="M267.475,63.586v18.379h64.066V63.586H267.475z"/>
	<path fill-rule="evenodd" clip-rule="evenodd" fill="#2B2B2B" d="M316.837,63.586v127.606h14.704V63.586H316.837z"/>
	<path fill-rule="evenodd" clip-rule="evenodd" fill="#2B2B2B" d="M354.122,63.586v18.905h50.413V63.586H354.122z"/>
	<path fill-rule="evenodd" clip-rule="evenodd" fill="#2B2B2B" d="M354.122,63.586v127.606h14.663V63.562L354.122,63.586z"/>
	<path fill-rule="evenodd" clip-rule="evenodd" fill="#2B2B2B" d="M354.122,172.814v18.378h64.591v-18.378H354.122z"/>
	<path fill-rule="evenodd" clip-rule="evenodd" fill="#2B2B2B" d="M429.215,102.447V120.3h64.066v-17.854H429.215z"/>
	<path fill-rule="evenodd" clip-rule="evenodd" fill="#2B2B2B" d="M429.215,63.586v127.606h15.229V63.586H429.215z"/>
	<path fill-rule="evenodd" clip-rule="evenodd" fill="#2B2B2B" d="M478.053,102.447v88.746h15.229v-88.746H478.053z"/>
	<path fill-rule="evenodd" clip-rule="evenodd" fill="#2B2B2B" d="M515.864,102.447v18.379h63.541v-18.379H515.864z"/>
	<path fill-rule="evenodd" clip-rule="evenodd" fill="#2B2B2B" d="M564.701,102.447v88.746h14.704v-88.746H564.701z"/>
	<path fill-rule="evenodd" clip-rule="evenodd" fill="#2B2B2B" d="M515.864,134.479v56.713h15.228v-56.713H515.864z"/>
	<path fill-rule="evenodd" clip-rule="evenodd" fill="#2B2B2B" d="M515.864,134.479v11.453h63.541v-11.453H515.864z"/>
	<path fill-rule="evenodd" clip-rule="evenodd" fill="#2B2B2B" d="M515.864,172.814v18.378h63.541v-18.378H515.864z"/>
	<path fill-rule="evenodd" clip-rule="evenodd" fill="#2B2B2B" d="M604.086,102.447v88.746h14.703v-88.746H604.086z"/>
	<path fill-rule="evenodd" clip-rule="evenodd" fill="#2B2B2B" d="M602.51,63.586v22.056h17.854V63.586H602.51z"/>
	<path fill-rule="evenodd" clip-rule="evenodd" fill="#2B2B2B" d="M643.996,102.447v88.746H658.7v-88.746H643.996z"/>
	<path fill-rule="evenodd" clip-rule="evenodd" fill="#2B2B2B" d="M692.833,102.447v88.746h14.704v-88.746H692.833z"/>
	<path fill-rule="evenodd" clip-rule="evenodd" fill="#2B2B2B" d="M643.996,102.447c0,6.125,0,12.253,0,18.379
		c21.005,0,63.54,0,63.54,0s0-12.253,0-18.379H643.996z"/>
</g>
</svg>
