<?xml version="1.0" encoding="utf-8"?>
<!-- Generator: Adobe Illustrator 16.0.0, SVG Export Plug-In . SVG Version: 6.00 Build 0)  -->
<!DOCTYPE svg PUBLIC "-//W3C//DTD SVG 1.1//EN" "http://www.w3.org/Graphics/SVG/1.1/DTD/svg11.dtd">
<svg version="1.1" id="Layer_1" xmlns="http://www.w3.org/2000/svg" xmlns:xlink="http://www.w3.org/1999/xlink" x="0px" y="0px"
	 width="824px" height="274px" viewBox="0 0 824 274" enable-background="new 0 0 824 274" xml:space="preserve">
<g>
	<g>
		<linearGradient id="SVGID_1_" gradientUnits="userSpaceOnUse" x1="-853.23" y1="-41.5181" x2="-406.1523" y2="-41.5181">
			<stop  offset="0" style="stop-color:#901E23"/>
			<stop  offset="0.5" style="stop-color:#9C2125"/>
			<stop  offset="1" style="stop-color:#901E23"/>
		</linearGradient>
		<path fill-rule="evenodd" clip-rule="evenodd" fill="url(#SVGID_1_)" d="M-629.695-223.833
			c97.629,0,177.241,77.069,181.354,173.685h7.475c-4.122-100.744-87.077-181.153-188.825-181.153
			c-101.748,0-184.702,80.409-188.825,181.153h7.475C-806.928-146.764-727.316-223.833-629.695-223.833z M-630.474-51.714h1.565
			c0.499,0.048,1.066,0,1.572,0c8.699,0,15.684-6.986,15.684-15.688s-6.984-15.686-15.684-15.686c-0.506,0-1.073-0.046-1.572,0
			h-1.565c-33.974,0-61.181,27.208-61.181,61.179v78.435c0,33.969,27.207,61.18,61.181,61.18c30.377,0,56.182-19.68,61.178-48.632
			c0.589-1.653,1.568-5.986,1.568-7.843c0-8.699-6.989-15.686-15.691-15.686c-8.697,0-17.252,6.986-17.252,15.686
			c-2.483,14.065-15.025,23.53-29.802,23.53c-16.575,0-28.237-11.665-28.237-28.235v-78.435
			C-658.711-38.483-647.048-51.714-630.474-51.714z M-630.474-265.057c-123.456,0-222.756,100.083-222.756,223.548
			c0,123.46,100.868,223.529,224.321,223.529c123.456,0,222.756-99.291,222.756-222.753
			C-406.152-164.196-507.021-265.057-630.474-265.057z M-630.474,164.766c-113.509,0-205.5-91.985-205.5-205.498
			c0-113.515,91.95-205.571,205.463-205.571c113.512,0,205.534,92.056,205.534,205.571
			C-424.977,72.78-516.962,164.766-630.474,164.766z M-629.695,139.239c-96.566,0-175.511-75.412-181.186-170.563h-7.485
			c5.681,99.277,87.975,178.034,188.675,178.034s182.995-78.757,188.676-178.034h-7.485
			C-454.176,63.827-533.121,139.239-629.695,139.239z M-552.042,18.876c0-5.799-5.179-10.979-10.979-10.979h-4.706v-145.892
			c0-33.971-27.207-62.747-61.181-62.747c-33.97,0-62.746,28.775-62.746,62.747c-0.151,13.694,0.151,27.097,0,40.788
			c0,8.606,7.08,15.684,15.687,15.684c8.605,0,15.688-7.078,15.688-15.684c0.195-13.691-0.199-27.094,0-40.788
			c0-16.572,14.801-29.801,31.372-29.801c16.575,0,28.237,13.229,28.237,29.801V7.897h-4.705c-5.804,0-9.414,5.18-9.414,10.979
			c0,5.804,3.61,10.983,9.414,10.983h42.354C-557.222,29.859-552.042,24.68-552.042,18.876z"/>
	</g>
</g>
<g>
	<g>
		<path fill="#FFFFFF" d="M15.592,50.711h94.582v209.774h28.17V14.453H15.592V50.711z M196.038,50.05h68.555V13.001h-96.591v246.03
			h123.756V223.59h-95.72V50.05z M349.537,14.453h-29.174v246.032h29.219V123.911h64.356v136.574h29.17V89.442h-93.571V14.453z
			 M473.094,124.806h93.625v26.821h-93.625v108.858h121.745V89.373H473.094V124.806z M566.719,225.052h-64.24v-51.816h64.24V225.052
			z M623.906,56.798h34.211v-42.52h-34.211V56.798z M625.826,260.835h30.026V89.722h-30.026V260.835z M686.665,89.886v171.113h28.17
			V125.442h65.042v135.557h28.531V89.886H686.665z"/>
	</g>
</g>
<linearGradient id="SVGID_2_" gradientUnits="userSpaceOnUse" x1="-639.6299" y1="-228.1143" x2="-621.6167" y2="-228.1143">
	<stop  offset="0" style="stop-color:#971E24"/>
	<stop  offset="0.5" style="stop-color:#A51F25"/>
	<stop  offset="1" style="stop-color:#971E24"/>
</linearGradient>
<ellipse fill-rule="evenodd" clip-rule="evenodd" fill="url(#SVGID_2_)" cx="-630.623" cy="-228.114" rx="9.007" ry="9"/>
<linearGradient id="SVGID_3_" gradientUnits="userSpaceOnUse" x1="-639.6299" y1="142.8857" x2="-621.6167" y2="142.8857">
	<stop  offset="0" style="stop-color:#971E24"/>
	<stop  offset="0.5" style="stop-color:#A51F25"/>
	<stop  offset="1" style="stop-color:#971E24"/>
</linearGradient>
<ellipse fill-rule="evenodd" clip-rule="evenodd" fill="url(#SVGID_3_)" cx="-630.623" cy="142.886" rx="9.007" ry="9"/>
</svg>
